Coordinates
version=1
nRows=12
nColumns=32
inDegrees=yes

Units are S.I. units (second, meters, Newtons, ...)
If the header above contains a line with 'inDegrees', this indicates whether rotational values are in degrees (yes) or radians (no).

endheader
time	pelvis_tilt	pelvis_list	pelvis_rotation	pelvis_tx	pelvis_ty	pelvis_tz	hip_flexion_r	hip_adduction_r	hip_rotation_r	knee_angle_r	knee_adduction_r	med_cond_adduction_r	lat_cond_adduction_r	patella_r_constrained_knee_angle	ankle_angle_r	subtalar_angle_r	mtp_angle_r	hip_flexion_l	hip_adduction_l	hip_rotation_l	knee_angle_l	knee_adduction_l	med_cond_adduction_l	lat_cond_adduction_l	patella_l_constrained_knee_angle	ankle_angle_l	subtalar_angle_l	mtp_angle_l	lumbar_extension	lumbar_bending	lumbar_rotation
      0.17500000	     -0.73676544	      9.05407489	      6.23078007	     -0.48544007	      0.90154669	      0.22692282	     29.07756569	    -17.46979581	    -14.44802390	    -11.12255516	      4.72882224	      0.00000000	      0.00000000	     -0.19412521	     -0.23459458	      5.84850369	      0.00000000	    -22.11351847	      6.66388960	    -11.88075069	     -8.31384167	     -1.36764217	      0.00000000	      0.00000000	     -0.14510391	     -0.75542218	     12.25759964	      0.00000000	     -2.02218155	     -5.13476160	     -0.21352930
      0.18000000	     -0.53943448	      8.80217200	      6.46471698	     -0.47757601	      0.90160814	      0.22684932	     28.71188979	    -17.32731860	    -14.51643634	    -11.74801929	      4.74685736	      0.00000000	      0.00000000	     -0.20504162	     -0.70140100	      5.44727852	      0.00000000	    -22.50191456	      6.28569826	    -11.58929698	     -8.70034546	     -1.63269738	      0.00000000	      0.00000000	     -0.15184967	     -1.58943478	     11.95226522	     -0.00000000	     -2.17799507	     -4.51956659	     -0.40056854
      0.18500000	     -0.34259857	      8.46846170	      6.60338627	     -0.46971975	      0.90168869	      0.22693098	     28.32150078	    -17.00806378	    -14.38629324	    -12.25095239	      4.75227106	      0.00000000	      0.00000000	     -0.21381946	     -1.36888702	      4.73455409	     -0.00000000	    -22.70182151	      5.78117353	    -11.78700586	     -9.42673715	     -1.87722618	      0.00000000	      0.00000000	     -0.16452760	     -2.25615820	     12.16052649	      0.00000000	     -2.29265892	     -4.35644182	     -1.43001408
      0.19000000	     -0.07087884	      8.07771924	      6.78292084	     -0.46181006	      0.90205687	      0.22694533	     27.81708336	    -16.66700554	    -14.47794916	    -12.77853731	      4.74480018	      0.00000000	      0.00000000	     -0.22302755	     -2.05316173	      4.24947704	     -0.00000000	    -23.01224898	      5.23851769	    -11.73892705	    -10.03731435	     -2.14215704	      0.00000000	      0.00000000	     -0.17518418	     -3.12531719	     11.97773421	     -0.00000000	     -2.50256737	     -3.70117810	     -1.83614067
      0.19500000	      0.18312872	      7.71240162	      6.96071740	     -0.45391479	      0.90246257	      0.22689884	     27.34408165	    -16.39032395	    -14.54792352	    -13.35588659	      4.79781518	      0.00000000	      0.00000000	     -0.23310420	     -2.74667027	      3.71557828	      0.00000000	    -23.20437186	      4.74243262	    -11.78401926	    -10.81388160	     -2.47054413	      0.00000000	      0.00000000	     -0.18873784	     -4.01209113	     11.86274532	      0.00000000	     -2.68317276	     -3.22523566	     -2.51715781
      0.20000000	      0.32219658	      7.68660370	      7.27992147	     -0.44606657	      0.90274977	      0.22637833	     27.16881581	    -16.76633628	    -14.82908283	    -14.47549824	      5.04516283	      0.00000000	      0.00000000	     -0.25264511	     -3.07444577	      3.84300490	     -0.00000000	    -23.28773192	      4.70137417	    -11.44179188	    -11.56797149	     -2.99451102	      0.00000000	      0.00000000	     -0.20189919	     -5.10347197	     11.47036137	     -0.00000000	     -2.76826986	     -3.40904948	     -3.75141790
      0.20500000	      0.70293370	      6.96519286	      7.19176407	     -0.43807764	      0.90353170	      0.22709673	     26.46968738	    -15.78981537	    -14.69647603	    -14.64290863	      4.90061542	      0.00000000	      0.00000000	     -0.25556697	     -4.06578826	      2.92289989	      0.00000000	    -23.41821444	      3.76483430	    -12.06002080	    -12.60445430	     -3.16223700	     -0.00000000	     -0.00000000	     -0.21998923	     -6.03504728	     11.55189737	     -0.00000000	     -3.02792801	     -2.28356956	     -3.78414958
      0.21000000	      0.96660170	      6.61335854	      7.31785624	     -0.43020695	      0.90424496	      0.22713081	     26.00805423	    -15.55904457	    -14.76796336	    -15.28128441	      5.03168510	     -0.00000000	     -0.00000000	     -0.26670873	     -4.72266732	      2.51900832	     -0.00000000	    -23.43749210	      3.33281564	    -12.13877723	    -13.61657733	     -3.57142095	     -0.00000000	     -0.00000000	     -0.23765411	     -7.17608142	     11.20812134	     -0.00000000	     -3.20959976	     -1.76910741	     -4.33899351
      0.21500000	      1.25382866	      6.18580894	      7.37933088	     -0.42226075	      0.90499566	      0.22730977	     25.54857714	    -15.21041583	    -14.87977904	    -15.96088586	      5.11630827	     -0.00000000	     -0.00000000	     -0.27857001	     -5.22700321	      2.29633622	      0.00000000	    -23.37257668	      2.78912549	    -12.47753425	    -14.81339021	     -3.95670551	      0.00000000	      0.00000000	     -0.25854243	     -8.31815031	     11.01784292	     -0.00000000	     -3.38981548	     -1.34686569	     -5.12521426
      0.22000000	      1.56343471	      5.70966264	      7.41097742	     -0.41437768	      0.90591256	      0.22757777	     25.01519814	    -14.76354676	    -14.88429202	    -16.49589365	      5.23417216	     -0.00000000	     -0.00000000	     -0.28790766	     -5.80750109	      1.80211368	     -0.00000000	    -23.24739106	      2.19417129	    -12.86198695	    -16.11760894	     -4.35145447	     -0.00000000	      0.00000000	     -0.28130534	     -9.51272064	     10.76503940	     -0.00000000	     -3.59517932	     -0.72954965	     -5.65728291
      0.22500000	      1.94402375	      5.03142897	      7.49519577	     -0.40640236	      0.90701348	      0.22762325	     24.31416837	    -14.09669369	    -15.06380105	    -16.89996344	      5.29533792	      0.00000000	      0.00000000	     -0.29496001	     -6.34087184	      1.40968096	     -0.00000000	    -23.08305462	      1.32805185	    -13.39042340	    -17.59797793	     -4.72730952	     -0.00000000	     -0.00000000	     -0.30714266	    -10.71946196	     10.50244921	      0.00000000	     -3.84138346	      0.00481303	     -6.56223399
      0.23000000	      2.23794888	      4.79305141	      7.80658128	     -0.39861921	      0.90801221	      0.22701251	     23.78536267	    -14.25207084	    -15.47250995	    -17.76447265	      5.66156403	     -0.00000000	     -0.00000000	     -0.31004854	     -6.39768688	      1.53152693	      0.00000000	    -22.73769219	      0.96607115	    -13.56419835	    -19.22657433	     -5.34186978	      0.00000000	      0.00000000	     -0.33556703	    -11.96245315	     10.23116588	      0.00000000	     -4.04996820	      0.30117026	     -7.54874126
